<mxfile host="app.diagrams.net" agent="Mozilla/5.0 (Windows NT 10.0; Win64; x64) AppleWebKit/537.36 (KHTML, like Gecko) Chrome/141.0.0.0 Safari/537.36" version="28.2.7">
  <diagram name="Page-1" id="D9e64Qj5WltO49DRFwKk">
    <mxGraphModel grid="1" page="1" gridSize="10" guides="1" tooltips="1" connect="1" arrows="1" fold="1" pageScale="1" pageWidth="850" pageHeight="1100" math="0" shadow="0">
      <root>
        <mxCell id="0" />
        <mxCell id="1" parent="0" />
        <mxCell id="OplAgv3Yd-DfTspWTNrv-1" value=":GUI" style="shape=umlLifeline;perimeter=lifelinePerimeter;whiteSpace=wrap;html=1;container=0;dropTarget=0;collapsible=0;recursiveResize=0;outlineConnect=0;portConstraint=eastwest;newEdgeStyle={&quot;edgeStyle&quot;:&quot;elbowEdgeStyle&quot;,&quot;elbow&quot;:&quot;vertical&quot;,&quot;curved&quot;:0,&quot;rounded&quot;:0};fillColor=#d5e8d4;strokeColor=#82b366;" vertex="1" parent="1">
          <mxGeometry x="820" y="170" width="100" height="730" as="geometry" />
        </mxCell>
        <mxCell id="OplAgv3Yd-DfTspWTNrv-2" value="" style="html=1;points=[];perimeter=orthogonalPerimeter;outlineConnect=0;targetShapes=umlLifeline;portConstraint=eastwest;newEdgeStyle={&quot;edgeStyle&quot;:&quot;elbowEdgeStyle&quot;,&quot;elbow&quot;:&quot;vertical&quot;,&quot;curved&quot;:0,&quot;rounded&quot;:0};" vertex="1" parent="OplAgv3Yd-DfTspWTNrv-1">
          <mxGeometry x="45" y="70" width="10" height="640" as="geometry" />
        </mxCell>
        <mxCell id="OplAgv3Yd-DfTspWTNrv-3" value="SearchTicket(date,time,class,source,destination)" style="html=1;verticalAlign=bottom;endArrow=block;edgeStyle=elbowEdgeStyle;elbow=vertical;curved=0;rounded=0;" edge="1" parent="1" target="OplAgv3Yd-DfTspWTNrv-6">
          <mxGeometry x="-0.0414" relative="1" as="geometry">
            <mxPoint x="880" y="290" as="sourcePoint" />
            <Array as="points">
              <mxPoint x="1020" y="290" />
              <mxPoint x="975" y="280" />
            </Array>
            <mxPoint x="1089.5" y="290" as="targetPoint" />
            <mxPoint as="offset" />
          </mxGeometry>
        </mxCell>
        <mxCell id="OplAgv3Yd-DfTspWTNrv-4" value="Customer" style="shape=umlActor;verticalLabelPosition=bottom;verticalAlign=top;html=1;outlineConnect=0;fillColor=#d5e8d4;strokeColor=#82b366;" vertex="1" parent="1">
          <mxGeometry x="540" y="250" width="30" height="60" as="geometry" />
        </mxCell>
        <mxCell id="OplAgv3Yd-DfTspWTNrv-5" value="Enter search criteria(date,time,class,source,destination)" style="html=1;verticalAlign=bottom;startArrow=oval;endArrow=block;startSize=8;edgeStyle=elbowEdgeStyle;elbow=horizontal;curved=0;rounded=0;exitX=1;exitY=0.3333333333333333;exitDx=0;exitDy=0;exitPerimeter=0;" edge="1" parent="1" source="OplAgv3Yd-DfTspWTNrv-4">
          <mxGeometry relative="1" as="geometry">
            <mxPoint x="820" y="270" as="sourcePoint" />
            <mxPoint x="860" y="270" as="targetPoint" />
            <Array as="points">
              <mxPoint x="840" y="270" />
            </Array>
          </mxGeometry>
        </mxCell>
        <mxCell id="OplAgv3Yd-DfTspWTNrv-6" value=":ControllerClass" style="shape=umlLifeline;perimeter=lifelinePerimeter;whiteSpace=wrap;html=1;container=0;dropTarget=0;collapsible=0;recursiveResize=0;outlineConnect=0;portConstraint=eastwest;newEdgeStyle={&quot;edgeStyle&quot;:&quot;elbowEdgeStyle&quot;,&quot;elbow&quot;:&quot;vertical&quot;,&quot;curved&quot;:0,&quot;rounded&quot;:0};fillColor=#d5e8d4;strokeColor=#82b366;" vertex="1" parent="1">
          <mxGeometry x="1060" y="170" width="100" height="720" as="geometry" />
        </mxCell>
        <mxCell id="OplAgv3Yd-DfTspWTNrv-7" value="" style="html=1;points=[];perimeter=orthogonalPerimeter;outlineConnect=0;targetShapes=umlLifeline;portConstraint=eastwest;newEdgeStyle={&quot;edgeStyle&quot;:&quot;elbowEdgeStyle&quot;,&quot;elbow&quot;:&quot;vertical&quot;,&quot;curved&quot;:0,&quot;rounded&quot;:0};" vertex="1" parent="OplAgv3Yd-DfTspWTNrv-6">
          <mxGeometry x="45" y="70" width="10" height="650" as="geometry" />
        </mxCell>
        <mxCell id="OplAgv3Yd-DfTspWTNrv-8" value=":Reservation" style="shape=umlLifeline;perimeter=lifelinePerimeter;whiteSpace=wrap;html=1;container=0;dropTarget=0;collapsible=0;recursiveResize=0;outlineConnect=0;portConstraint=eastwest;newEdgeStyle={&quot;edgeStyle&quot;:&quot;elbowEdgeStyle&quot;,&quot;elbow&quot;:&quot;vertical&quot;,&quot;curved&quot;:0,&quot;rounded&quot;:0};fillColor=#d5e8d4;strokeColor=#82b366;" vertex="1" parent="1">
          <mxGeometry x="1220" y="170" width="100" height="720" as="geometry" />
        </mxCell>
        <mxCell id="OplAgv3Yd-DfTspWTNrv-9" value="" style="html=1;points=[];perimeter=orthogonalPerimeter;outlineConnect=0;targetShapes=umlLifeline;portConstraint=eastwest;newEdgeStyle={&quot;edgeStyle&quot;:&quot;elbowEdgeStyle&quot;,&quot;elbow&quot;:&quot;vertical&quot;,&quot;curved&quot;:0,&quot;rounded&quot;:0};" vertex="1" parent="OplAgv3Yd-DfTspWTNrv-8">
          <mxGeometry x="45" y="70" width="10" height="650" as="geometry" />
        </mxCell>
        <mxCell id="OplAgv3Yd-DfTspWTNrv-10" value="SearchTicket()" style="html=1;verticalAlign=bottom;endArrow=block;edgeStyle=elbowEdgeStyle;elbow=vertical;curved=0;rounded=0;" edge="1" parent="1">
          <mxGeometry relative="1" as="geometry">
            <mxPoint x="1120" y="530" as="sourcePoint" />
            <Array as="points">
              <mxPoint x="1250" y="530" />
              <mxPoint x="1205" y="520" />
            </Array>
            <mxPoint x="1260" y="530" as="targetPoint" />
            <mxPoint as="offset" />
          </mxGeometry>
        </mxCell>
        <mxCell id="OplAgv3Yd-DfTspWTNrv-11" value="if any field empty" style="shape=umlFrame;whiteSpace=wrap;html=1;pointerEvents=0;width=100;height=20;fillColor=#7EA6E0;strokeColor=#6c8ebf;" vertex="1" parent="1">
          <mxGeometry x="830" y="320" width="960" height="560" as="geometry" />
        </mxCell>
        <mxCell id="OplAgv3Yd-DfTspWTNrv-12" value="else" style="shape=umlFrame;whiteSpace=wrap;html=1;pointerEvents=0;width=60;height=20;fillColor=#7EA6E0;" vertex="1" parent="1">
          <mxGeometry x="830" y="390" width="960" height="490" as="geometry" />
        </mxCell>
        <mxCell id="OplAgv3Yd-DfTspWTNrv-13" value="Display error &quot;This field is required&quot;" style="html=1;verticalAlign=bottom;endArrow=open;dashed=1;endSize=8;edgeStyle=elbowEdgeStyle;elbow=vertical;curved=0;rounded=0;" edge="1" parent="1">
          <mxGeometry x="-0.0526" relative="1" as="geometry">
            <mxPoint x="880" y="360" as="targetPoint" />
            <Array as="points">
              <mxPoint x="1120" y="360" />
            </Array>
            <mxPoint x="1100" y="361" as="sourcePoint" />
            <mxPoint as="offset" />
          </mxGeometry>
        </mxCell>
        <mxCell id="OplAgv3Yd-DfTspWTNrv-14" value=":Route" style="shape=umlLifeline;perimeter=lifelinePerimeter;whiteSpace=wrap;html=1;container=0;dropTarget=0;collapsible=0;recursiveResize=0;outlineConnect=0;portConstraint=eastwest;newEdgeStyle={&quot;edgeStyle&quot;:&quot;elbowEdgeStyle&quot;,&quot;elbow&quot;:&quot;vertical&quot;,&quot;curved&quot;:0,&quot;rounded&quot;:0};fillColor=#d5e8d4;strokeColor=#82b366;" vertex="1" parent="1">
          <mxGeometry x="1390" y="170" width="100" height="720" as="geometry" />
        </mxCell>
        <mxCell id="OplAgv3Yd-DfTspWTNrv-15" value="" style="html=1;points=[];perimeter=orthogonalPerimeter;outlineConnect=0;targetShapes=umlLifeline;portConstraint=eastwest;newEdgeStyle={&quot;edgeStyle&quot;:&quot;elbowEdgeStyle&quot;,&quot;elbow&quot;:&quot;vertical&quot;,&quot;curved&quot;:0,&quot;rounded&quot;:0};" vertex="1" parent="OplAgv3Yd-DfTspWTNrv-14">
          <mxGeometry x="45" y="70" width="10" height="650" as="geometry" />
        </mxCell>
        <mxCell id="OplAgv3Yd-DfTspWTNrv-16" value=":Schedule" style="shape=umlLifeline;perimeter=lifelinePerimeter;whiteSpace=wrap;html=1;container=0;dropTarget=0;collapsible=0;recursiveResize=0;outlineConnect=0;portConstraint=eastwest;newEdgeStyle={&quot;edgeStyle&quot;:&quot;elbowEdgeStyle&quot;,&quot;elbow&quot;:&quot;vertical&quot;,&quot;curved&quot;:0,&quot;rounded&quot;:0};fillColor=#d5e8d4;strokeColor=#82b366;" vertex="1" parent="1">
          <mxGeometry x="1550" y="170" width="100" height="720" as="geometry" />
        </mxCell>
        <mxCell id="OplAgv3Yd-DfTspWTNrv-17" value="" style="html=1;points=[];perimeter=orthogonalPerimeter;outlineConnect=0;targetShapes=umlLifeline;portConstraint=eastwest;newEdgeStyle={&quot;edgeStyle&quot;:&quot;elbowEdgeStyle&quot;,&quot;elbow&quot;:&quot;vertical&quot;,&quot;curved&quot;:0,&quot;rounded&quot;:0};" vertex="1" parent="OplAgv3Yd-DfTspWTNrv-16">
          <mxGeometry x="45" y="420" width="10" height="50" as="geometry" />
        </mxCell>
        <mxCell id="OplAgv3Yd-DfTspWTNrv-18" value=":Seat" style="shape=umlLifeline;perimeter=lifelinePerimeter;whiteSpace=wrap;html=1;container=0;dropTarget=0;collapsible=0;recursiveResize=0;outlineConnect=0;portConstraint=eastwest;newEdgeStyle={&quot;edgeStyle&quot;:&quot;elbowEdgeStyle&quot;,&quot;elbow&quot;:&quot;vertical&quot;,&quot;curved&quot;:0,&quot;rounded&quot;:0};fillColor=#d5e8d4;strokeColor=#82b366;" vertex="1" parent="1">
          <mxGeometry x="1710" y="170" width="100" height="720" as="geometry" />
        </mxCell>
        <mxCell id="OplAgv3Yd-DfTspWTNrv-19" value="" style="html=1;points=[];perimeter=orthogonalPerimeter;outlineConnect=0;targetShapes=umlLifeline;portConstraint=eastwest;newEdgeStyle={&quot;edgeStyle&quot;:&quot;elbowEdgeStyle&quot;,&quot;elbow&quot;:&quot;vertical&quot;,&quot;curved&quot;:0,&quot;rounded&quot;:0};" vertex="1" parent="OplAgv3Yd-DfTspWTNrv-18">
          <mxGeometry x="45" y="470" width="10" height="130" as="geometry" />
        </mxCell>
        <mxCell id="OplAgv3Yd-DfTspWTNrv-20" value="if source and destination same" style="shape=umlFrame;whiteSpace=wrap;html=1;pointerEvents=0;width=100;height=30;gradientColor=none;fillColor=#EA6B66;" vertex="1" parent="1">
          <mxGeometry x="850" y="420" width="930" height="450" as="geometry" />
        </mxCell>
        <mxCell id="OplAgv3Yd-DfTspWTNrv-21" value="Display error &quot;Source and Destination cannot&amp;nbsp;&lt;div&gt;be same&quot;&lt;/div&gt;" style="html=1;verticalAlign=bottom;endArrow=open;dashed=1;endSize=8;edgeStyle=elbowEdgeStyle;elbow=vertical;curved=0;rounded=0;" edge="1" parent="1">
          <mxGeometry x="-0.0526" relative="1" as="geometry">
            <mxPoint x="880" y="480" as="targetPoint" />
            <Array as="points">
              <mxPoint x="1120" y="480" />
            </Array>
            <mxPoint x="1100" y="481" as="sourcePoint" />
            <mxPoint as="offset" />
          </mxGeometry>
        </mxCell>
        <mxCell id="OplAgv3Yd-DfTspWTNrv-22" value="else" style="shape=umlFrame;whiteSpace=wrap;html=1;pointerEvents=0;width=90;height=15;fillColor=#EA6B66;" vertex="1" parent="1">
          <mxGeometry x="850" y="500" width="930" height="370" as="geometry" />
        </mxCell>
        <mxCell id="OplAgv3Yd-DfTspWTNrv-23" value="VerifySrc_Dest()" style="html=1;verticalAlign=bottom;endArrow=block;edgeStyle=elbowEdgeStyle;elbow=vertical;curved=0;rounded=0;" edge="1" parent="1">
          <mxGeometry relative="1" as="geometry">
            <mxPoint x="1280" y="554.41" as="sourcePoint" />
            <Array as="points">
              <mxPoint x="1410" y="554.41" />
              <mxPoint x="1365" y="544.41" />
            </Array>
            <mxPoint x="1430" y="554.41" as="targetPoint" />
            <mxPoint as="offset" />
          </mxGeometry>
        </mxCell>
        <mxCell id="OplAgv3Yd-DfTspWTNrv-24" value="Return Route Details" style="html=1;verticalAlign=bottom;endArrow=open;dashed=1;endSize=8;edgeStyle=elbowEdgeStyle;elbow=vertical;curved=0;rounded=0;" edge="1" parent="1">
          <mxGeometry x="-0.0667" relative="1" as="geometry">
            <mxPoint x="1280" y="580" as="targetPoint" />
            <Array as="points">
              <mxPoint x="1395" y="580" />
            </Array>
            <mxPoint x="1430" y="580" as="sourcePoint" />
            <mxPoint x="-1" as="offset" />
          </mxGeometry>
        </mxCell>
        <mxCell id="OplAgv3Yd-DfTspWTNrv-25" value="CheckSchedule()" style="html=1;verticalAlign=bottom;endArrow=block;edgeStyle=elbowEdgeStyle;elbow=vertical;curved=0;rounded=0;" edge="1" parent="1">
          <mxGeometry relative="1" as="geometry">
            <mxPoint x="1280" y="610" as="sourcePoint" />
            <Array as="points">
              <mxPoint x="1410" y="610" />
              <mxPoint x="1365" y="600" />
            </Array>
            <mxPoint x="1590" y="610" as="targetPoint" />
            <mxPoint as="offset" />
          </mxGeometry>
        </mxCell>
        <mxCell id="OplAgv3Yd-DfTspWTNrv-26" value="Return Schedule Details" style="html=1;verticalAlign=bottom;endArrow=open;dashed=1;endSize=8;edgeStyle=elbowEdgeStyle;elbow=vertical;curved=0;rounded=0;" edge="1" parent="1">
          <mxGeometry x="-0.0667" relative="1" as="geometry">
            <mxPoint x="1280" y="630" as="targetPoint" />
            <Array as="points">
              <mxPoint x="1395" y="630" />
            </Array>
            <mxPoint x="1590" y="630" as="sourcePoint" />
            <mxPoint x="-1" as="offset" />
          </mxGeometry>
        </mxCell>
        <mxCell id="OplAgv3Yd-DfTspWTNrv-27" value="CheckAvailability()" style="html=1;verticalAlign=bottom;endArrow=block;edgeStyle=elbowEdgeStyle;elbow=vertical;curved=0;rounded=0;" edge="1" parent="1">
          <mxGeometry relative="1" as="geometry">
            <mxPoint x="1280" y="660" as="sourcePoint" />
            <Array as="points">
              <mxPoint x="1570" y="660" />
              <mxPoint x="1525" y="650" />
            </Array>
            <mxPoint x="1750" y="660" as="targetPoint" />
            <mxPoint as="offset" />
          </mxGeometry>
        </mxCell>
        <mxCell id="OplAgv3Yd-DfTspWTNrv-28" value="Display error &quot;No available Seats" style="html=1;verticalAlign=bottom;endArrow=open;dashed=1;endSize=8;edgeStyle=elbowEdgeStyle;elbow=horizontal;curved=0;rounded=0;" edge="1" parent="1">
          <mxGeometry x="-0.0465" relative="1" as="geometry">
            <mxPoint x="880" y="710" as="targetPoint" />
            <Array as="points">
              <mxPoint x="1385" y="710" />
            </Array>
            <mxPoint x="1750" y="710" as="sourcePoint" />
            <mxPoint as="offset" />
          </mxGeometry>
        </mxCell>
        <mxCell id="OplAgv3Yd-DfTspWTNrv-29" value="if no available seats" style="shape=umlFrame;whiteSpace=wrap;html=1;pointerEvents=0;width=90;height=30;fillColor=#A680B8;" vertex="1" parent="1">
          <mxGeometry x="860" y="670" width="910" height="190" as="geometry" />
        </mxCell>
        <mxCell id="OplAgv3Yd-DfTspWTNrv-30" value="else" style="shape=umlFrame;whiteSpace=wrap;html=1;pointerEvents=0;width=70;height=20;fillColor=#A680B8;" vertex="1" parent="1">
          <mxGeometry x="860" y="720" width="910" height="140" as="geometry" />
        </mxCell>
        <mxCell id="OplAgv3Yd-DfTspWTNrv-31" value="Return Availability Status" style="html=1;verticalAlign=bottom;endArrow=open;dashed=1;endSize=8;edgeStyle=elbowEdgeStyle;elbow=vertical;curved=0;rounded=0;" edge="1" parent="1">
          <mxGeometry x="-0.0667" relative="1" as="geometry">
            <mxPoint x="1280" y="749.44" as="targetPoint" />
            <Array as="points">
              <mxPoint x="1545" y="749.44" />
            </Array>
            <mxPoint x="1750" y="749" as="sourcePoint" />
            <mxPoint x="-1" as="offset" />
          </mxGeometry>
        </mxCell>
        <mxCell id="OplAgv3Yd-DfTspWTNrv-32" value="Display Available Seats" style="html=1;verticalAlign=bottom;endArrow=open;dashed=1;endSize=8;edgeStyle=elbowEdgeStyle;elbow=vertical;curved=0;rounded=0;" edge="1" parent="1">
          <mxGeometry x="-0.0526" relative="1" as="geometry">
            <mxPoint x="880" y="810.0000000000001" as="targetPoint" />
            <Array as="points">
              <mxPoint x="995" y="810.0000000000001" />
            </Array>
            <mxPoint x="1260" y="810.11" as="sourcePoint" />
            <mxPoint as="offset" />
          </mxGeometry>
        </mxCell>
        <mxCell id="OplAgv3Yd-DfTspWTNrv-33" value="ViewAvailableSeats()" style="html=1;align=left;spacingLeft=2;endArrow=block;rounded=0;edgeStyle=orthogonalEdgeStyle;curved=0;rounded=0;" edge="1" parent="1">
          <mxGeometry relative="1" as="geometry">
            <mxPoint x="1275" y="770" as="sourcePoint" />
            <Array as="points">
              <mxPoint x="1300" y="800" />
            </Array>
            <mxPoint x="1275" y="800" as="targetPoint" />
          </mxGeometry>
        </mxCell>
      </root>
    </mxGraphModel>
  </diagram>
</mxfile>
